<svg width="156" height="38" viewBox="0 0 156 38" fill="none" xmlns="http://www.w3.org/2000/svg">
<path opacity="0.2" d="M26 8H6C5.44772 8 5 8.44772 5 9V29C5 29.5523 5.44772 30 6 30H26C26.5523 30 27 29.5523 27 29V9C27 8.44772 26.5523 8 26 8Z" fill="#33E28E"/>
<path d="M21.5 16L14.1666 23L10.5 19.5" stroke="#33E28E" stroke-width="2" stroke-linecap="round" stroke-linejoin="round"/>
<path d="M26 8H6C5.44772 8 5 8.44772 5 9V29C5 29.5523 5.44772 30 6 30H26C26.5523 30 27 29.5523 27 29V9C27 8.44772 26.5523 8 26 8Z" stroke="#33E28E" stroke-width="2" stroke-linecap="round" stroke-linejoin="round"/>
<path d="M48.8682 11.3594H51.5967L55.6143 22.8428L59.6318 11.3594H62.3604L56.71 27H54.5186L48.8682 11.3594ZM47.3965 11.3594H50.1143L50.6084 22.5527V27H47.3965V11.3594ZM61.1143 11.3594H63.8428V27H60.6201V22.5527L61.1143 11.3594ZM73.3496 24.2178V15.377H76.4434V27H73.5322L73.3496 24.2178ZM73.6934 21.833L74.6064 21.8115C74.6064 22.585 74.5169 23.3047 74.3379 23.9707C74.1589 24.6296 73.8903 25.2025 73.5322 25.6895C73.1742 26.1693 72.723 26.5452 72.1787 26.8174C71.6344 27.0824 70.9935 27.2148 70.2559 27.2148C69.6901 27.2148 69.1673 27.1361 68.6875 26.9785C68.2148 26.8138 67.8066 26.5596 67.4629 26.2158C67.1263 25.8649 66.8613 25.4173 66.668 24.873C66.4818 24.3216 66.3887 23.6592 66.3887 22.8857V15.377H69.4824V22.9072C69.4824 23.251 69.5218 23.541 69.6006 23.7773C69.6865 24.0137 69.8047 24.207 69.9551 24.3574C70.1055 24.5078 70.2809 24.6152 70.4814 24.6797C70.6891 24.7441 70.9183 24.7764 71.1689 24.7764C71.8063 24.7764 72.3076 24.6475 72.6729 24.3896C73.0452 24.1318 73.3066 23.7809 73.457 23.3369C73.6146 22.8857 73.6934 22.3844 73.6934 21.833ZM83.6084 24.7979C83.988 24.7979 84.3245 24.7262 84.6182 24.583C84.9118 24.4326 85.141 24.2249 85.3057 23.96C85.4775 23.6878 85.5671 23.3691 85.5742 23.0039H88.4854C88.4782 23.8203 88.2598 24.5472 87.8301 25.1846C87.4004 25.8148 86.8239 26.3125 86.1006 26.6777C85.3773 27.0358 84.568 27.2148 83.6729 27.2148C82.7705 27.2148 81.9827 27.0645 81.3096 26.7637C80.6436 26.4629 80.0885 26.0475 79.6445 25.5176C79.2005 24.9805 78.8675 24.3574 78.6455 23.6484C78.4235 22.9323 78.3125 22.166 78.3125 21.3496V21.0381C78.3125 20.2145 78.4235 19.4482 78.6455 18.7393C78.8675 18.0231 79.2005 17.4001 79.6445 16.8701C80.0885 16.333 80.6436 15.9141 81.3096 15.6133C81.9756 15.3125 82.7562 15.1621 83.6514 15.1621C84.6038 15.1621 85.4382 15.3447 86.1543 15.71C86.8776 16.0752 87.4434 16.598 87.8516 17.2783C88.2669 17.9515 88.4782 18.75 88.4854 19.6738H85.5742C85.5671 19.2871 85.4847 18.9362 85.3271 18.6211C85.1768 18.306 84.9548 18.0553 84.6611 17.8691C84.3747 17.6758 84.0202 17.5791 83.5977 17.5791C83.1465 17.5791 82.7777 17.6758 82.4912 17.8691C82.2048 18.0553 81.9827 18.3132 81.8252 18.6426C81.6676 18.9648 81.5566 19.3337 81.4922 19.749C81.4349 20.1572 81.4062 20.5869 81.4062 21.0381V21.3496C81.4062 21.8008 81.4349 22.234 81.4922 22.6494C81.5495 23.0648 81.6569 23.4336 81.8145 23.7559C81.9792 24.0781 82.2048 24.3324 82.4912 24.5186C82.7777 24.7048 83.1501 24.7979 83.6084 24.7979ZM93.2979 10.5V27H90.2041V10.5H93.2979ZM92.8574 20.7803H92.0088C92.016 19.971 92.1234 19.2262 92.3311 18.5459C92.5387 17.8584 92.8359 17.264 93.2227 16.7627C93.6094 16.2542 94.0713 15.8604 94.6084 15.5811C95.1527 15.3018 95.7542 15.1621 96.4131 15.1621C96.986 15.1621 97.5052 15.2445 97.9707 15.4092C98.4434 15.5667 98.848 15.8245 99.1846 16.1826C99.5283 16.5335 99.7933 16.9954 99.9795 17.5684C100.166 18.1413 100.259 18.8359 100.259 19.6523V27H97.1436V19.6309C97.1436 19.1152 97.0684 18.7106 96.918 18.417C96.7747 18.1162 96.5635 17.9049 96.2842 17.7832C96.012 17.6543 95.6755 17.5898 95.2744 17.5898C94.8304 17.5898 94.4508 17.6722 94.1357 17.8369C93.8278 18.0016 93.5807 18.2308 93.3945 18.5244C93.2083 18.8109 93.0723 19.1475 92.9863 19.5342C92.9004 19.9209 92.8574 20.3363 92.8574 20.7803ZM114.696 11.3594V27H111.484V11.3594H114.696ZM119.509 11.3594V13.8838H106.747V11.3594H119.509ZM118.789 21.3066V21.0811C118.789 20.2288 118.911 19.4447 119.154 18.7285C119.398 18.0052 119.752 17.3786 120.218 16.8486C120.683 16.3187 121.256 15.9069 121.937 15.6133C122.617 15.3125 123.397 15.1621 124.278 15.1621C125.159 15.1621 125.943 15.3125 126.631 15.6133C127.318 15.9069 127.895 16.3187 128.36 16.8486C128.833 17.3786 129.191 18.0052 129.435 18.7285C129.678 19.4447 129.8 20.2288 129.8 21.0811V21.3066C129.8 22.1517 129.678 22.9359 129.435 23.6592C129.191 24.3753 128.833 25.002 128.36 25.5391C127.895 26.069 127.322 26.4808 126.642 26.7744C125.961 27.068 125.181 27.2148 124.3 27.2148C123.419 27.2148 122.635 27.068 121.947 26.7744C121.267 26.4808 120.69 26.069 120.218 25.5391C119.752 25.002 119.398 24.3753 119.154 23.6592C118.911 22.9359 118.789 22.1517 118.789 21.3066ZM121.883 21.0811V21.3066C121.883 21.7936 121.926 22.2484 122.012 22.6709C122.098 23.0934 122.234 23.4658 122.42 23.7881C122.613 24.1032 122.864 24.3503 123.172 24.5293C123.48 24.7083 123.856 24.7979 124.3 24.7979C124.729 24.7979 125.098 24.7083 125.406 24.5293C125.714 24.3503 125.961 24.1032 126.147 23.7881C126.334 23.4658 126.47 23.0934 126.556 22.6709C126.649 22.2484 126.695 21.7936 126.695 21.3066V21.0811C126.695 20.6084 126.649 20.1644 126.556 19.749C126.47 19.3265 126.33 18.9541 126.137 18.6318C125.951 18.3024 125.703 18.0446 125.396 17.8584C125.088 17.6722 124.715 17.5791 124.278 17.5791C123.841 17.5791 123.469 17.6722 123.161 17.8584C122.86 18.0446 122.613 18.3024 122.42 18.6318C122.234 18.9541 122.098 19.3265 122.012 19.749C121.926 20.1644 121.883 20.6084 121.883 21.0811ZM138.565 24.4648V10.5H141.681V27H138.877L138.565 24.4648ZM131.218 21.3281V21.1025C131.218 20.2145 131.318 19.4089 131.519 18.6855C131.719 17.9551 132.013 17.3285 132.399 16.8057C132.786 16.2829 133.262 15.8783 133.828 15.5918C134.394 15.3053 135.038 15.1621 135.762 15.1621C136.442 15.1621 137.036 15.3053 137.545 15.5918C138.061 15.8783 138.497 16.2865 138.855 16.8164C139.221 17.3392 139.514 17.9587 139.736 18.6748C139.958 19.3838 140.119 20.1608 140.22 21.0059V21.5C140.119 22.3092 139.958 23.0612 139.736 23.7559C139.514 24.4505 139.221 25.0592 138.855 25.582C138.497 26.0977 138.061 26.4987 137.545 26.7852C137.029 27.0716 136.428 27.2148 135.74 27.2148C135.017 27.2148 134.372 27.068 133.807 26.7744C133.248 26.4808 132.775 26.069 132.389 25.5391C132.009 25.0091 131.719 24.3861 131.519 23.6699C131.318 22.9538 131.218 22.1732 131.218 21.3281ZM134.312 21.1025V21.3281C134.312 21.8079 134.347 22.2555 134.419 22.6709C134.498 23.0863 134.623 23.4551 134.795 23.7773C134.974 24.0924 135.203 24.3395 135.482 24.5186C135.769 24.6904 136.116 24.7764 136.524 24.7764C137.054 24.7764 137.491 24.6582 137.835 24.4219C138.179 24.1784 138.44 23.8454 138.619 23.4229C138.805 23.0003 138.913 22.5133 138.941 21.9619V20.5547C138.92 20.1035 138.855 19.6989 138.748 19.3408C138.648 18.9756 138.497 18.6641 138.297 18.4062C138.104 18.1484 137.86 17.9479 137.566 17.8047C137.28 17.6615 136.94 17.5898 136.546 17.5898C136.145 17.5898 135.801 17.6829 135.515 17.8691C135.228 18.0482 134.995 18.2952 134.816 18.6104C134.645 18.9255 134.516 19.2979 134.43 19.7275C134.351 20.1501 134.312 20.6084 134.312 21.1025ZM143.604 21.3066V21.0811C143.604 20.2288 143.725 19.4447 143.969 18.7285C144.212 18.0052 144.567 17.3786 145.032 16.8486C145.498 16.3187 146.071 15.9069 146.751 15.6133C147.431 15.3125 148.212 15.1621 149.093 15.1621C149.974 15.1621 150.758 15.3125 151.445 15.6133C152.133 15.9069 152.709 16.3187 153.175 16.8486C153.647 17.3786 154.006 18.0052 154.249 18.7285C154.493 19.4447 154.614 20.2288 154.614 21.0811V21.3066C154.614 22.1517 154.493 22.9359 154.249 23.6592C154.006 24.3753 153.647 25.002 153.175 25.5391C152.709 26.069 152.136 26.4808 151.456 26.7744C150.776 27.068 149.995 27.2148 149.114 27.2148C148.233 27.2148 147.449 27.068 146.762 26.7744C146.081 26.4808 145.505 26.069 145.032 25.5391C144.567 25.002 144.212 24.3753 143.969 23.6592C143.725 22.9359 143.604 22.1517 143.604 21.3066ZM146.697 21.0811V21.3066C146.697 21.7936 146.74 22.2484 146.826 22.6709C146.912 23.0934 147.048 23.4658 147.234 23.7881C147.428 24.1032 147.678 24.3503 147.986 24.5293C148.294 24.7083 148.67 24.7979 149.114 24.7979C149.544 24.7979 149.913 24.7083 150.221 24.5293C150.529 24.3503 150.776 24.1032 150.962 23.7881C151.148 23.4658 151.284 23.0934 151.37 22.6709C151.463 22.2484 151.51 21.7936 151.51 21.3066V21.0811C151.51 20.6084 151.463 20.1644 151.37 19.749C151.284 19.3265 151.145 18.9541 150.951 18.6318C150.765 18.3024 150.518 18.0446 150.21 17.8584C149.902 17.6722 149.53 17.5791 149.093 17.5791C148.656 17.5791 148.284 17.6722 147.976 17.8584C147.675 18.0446 147.428 18.3024 147.234 18.6318C147.048 18.9541 146.912 19.3265 146.826 19.749C146.74 20.1644 146.697 20.6084 146.697 21.0811Z" fill="white"/>
</svg>
